<svg preserveAspectRatio="none" overflow="visible" style="display: block;" width="16" height="16" viewBox="0 0 16 16" fill="none" xmlns="http://www.w3.org/2000/svg">
<g id="ic:round-check">
<path id="Vector" d="M6 10.78L3.68667 8.46667C3.56201 8.34201 3.39295 8.27199 3.21667 8.27199C3.04038 8.27199 2.87132 8.34201 2.74667 8.46667C2.62201 8.59132 2.55199 8.76038 2.55199 8.93667C2.55199 9.02395 2.56918 9.11039 2.60258 9.19103C2.63599 9.27167 2.68495 9.34494 2.74667 9.40667L5.53333 12.1933C5.79333 12.4533 6.21333 12.4533 6.47333 12.1933L13.5267 5.14C13.6513 5.01535 13.7213 4.84628 13.7213 4.67C13.7213 4.49372 13.6513 4.32465 13.5267 4.2C13.402 4.07535 13.2329 4.00532 13.0567 4.00532C12.8804 4.00532 12.7113 4.07535 12.5867 4.2L6 10.78Z" fill="#13869A"/>
</g>
</svg>
